<svg xmlns="http://www.w3.org/2000/svg" viewBox="0 0 94.8 55.04">
	<defs><style>.cls-1,.cls-2{fill:#ed3f43;}.cls-1{fill-rule:evenodd;}</style></defs><title>votlo</title><g id="Layer_2" data-name="Layer 2"><g id="Layer_1-2" data-name="Layer 1"><polyline class="cls-1" points="8.34 27.11 10.79 10.87 16.17 10.87 11.3 34.29 4.89 34.29 0 10.87 5.41 10.87 7.86 27.11 8.12 29.07"></polyline><polygon class="cls-1" points="35.35 15.29 35.7 10.87 49.39 10.87 49.81 15.29 45.33 15.29 45.33 34.29 40.05 34.29 40.05 15.29 35.35 15.29"></polygon><rect class="cls-2" x="52.13" y="10.87" width="5.25" height="23.41"></rect><path class="cls-1" d="M1.79,52.22a1.79,1.79,0,0,0,.59.62,2.13,2.13,0,0,0,.75.32,1.1,1.1,0,0,0,.67-.06.65.65,0,0,0,.37-.52,1.22,1.22,0,0,0-.07-.66,1.16,1.16,0,0,0-.43-.53A2.66,2.66,0,0,0,3,51.08a6.5,6.5,0,0,1-.66-.27,2.64,2.64,0,0,1-.59-.38,1.49,1.49,0,0,1-.42-.67,2.82,2.82,0,0,1-.14-.65,4,4,0,0,1,0-.67,4.14,4.14,0,0,1,.09-.61,2.27,2.27,0,0,1,.15-.46,2.72,2.72,0,0,1,.4-.65,2.47,2.47,0,0,1,.59-.52,2.71,2.71,0,0,1,.79-.32,3.56,3.56,0,0,1,1-.09,1.72,1.72,0,0,1,.32,0l.37.09a2.44,2.44,0,0,1,.36.15,1.61,1.61,0,0,1,.31.2l-.27,2.17a1.44,1.44,0,0,0-.53-.66,1.29,1.29,0,0,0-.59-.18,1.07,1.07,0,0,0-.79.29,1.18,1.18,0,0,0-.32.78,1,1,0,0,0,.17.71,1.59,1.59,0,0,0,.62.43l.8.34a2.74,2.74,0,0,1,.65.41,2,2,0,0,1,.46.6,2.62,2.62,0,0,1,.24.93A2.85,2.85,0,0,1,6,53a2.26,2.26,0,0,1-.3.75,1.55,1.55,0,0,1-.4.42,2.11,2.11,0,0,1-.49.27,2.58,2.58,0,0,1-.54.14,3.85,3.85,0,0,1-.56,0,4.59,4.59,0,0,1-.55,0,4.66,4.66,0,0,1-.56-.1,3.69,3.69,0,0,1-.51-.17,2.36,2.36,0,0,1-.41-.21Z"></path><polygon class="cls-1" points="14.37 54.45 14.37 46.01 18.18 46.01 18.18 47.6 16.23 47.6 16.23 49.45 18.09 49.45 18.09 50.95 16.23 50.95 16.23 52.8 18.18 52.8 18.18 54.45 14.37 54.45"></polygon><path class="cls-1" d="M31,48.44A2.29,2.29,0,0,0,30.7,48a1.31,1.31,0,0,0-.31-.26,1,1,0,0,0-.28-.12l-.23,0a1.05,1.05,0,0,0-.7.28,2,2,0,0,0-.48.69,4.11,4.11,0,0,0-.27.91,4.65,4.65,0,0,0-.08.94,6,6,0,0,0,.07.91,3.48,3.48,0,0,0,.23.82,2,2,0,0,0,.4.62,1,1,0,0,0,.6.3,1.09,1.09,0,0,0,.29,0,1.53,1.53,0,0,0,.36-.12,1.74,1.74,0,0,0,.38-.24,1.92,1.92,0,0,0,.37-.41l0,2a3,3,0,0,1-.79.3,3.26,3.26,0,0,1-.68.08,2.93,2.93,0,0,1-1.4-.32,2.77,2.77,0,0,1-1-.9,4.37,4.37,0,0,1-.6-1.38,7.42,7.42,0,0,1-.21-1.75,6.94,6.94,0,0,1,.16-1.68,4.29,4.29,0,0,1,.59-1.43,3,3,0,0,1,1.06-1,3.19,3.19,0,0,1,1.6-.37,2.52,2.52,0,0,1,.74.12,1.83,1.83,0,0,1,.68.38Z"></path><path class="cls-1" d="M42.29,54.61a2.94,2.94,0,0,1-2-.6,2.36,2.36,0,0,1-.7-1.89V46h1.86v6a3.29,3.29,0,0,0,0,.39.91.91,0,0,0,.1.32.53.53,0,0,0,.24.22,1.31,1.31,0,0,0,.91,0,.53.53,0,0,0,.24-.22.89.89,0,0,0,.1-.32,3.1,3.1,0,0,0,0-.39V46H45v6.12A2.37,2.37,0,0,1,44.27,54a2.94,2.94,0,0,1-2,.6"></path><polygon class="cls-1" points="67.06 54.45 67.06 46.01 70.87 46.01 70.87 47.6 68.92 47.6 68.92 49.45 70.78 49.45 70.78 50.95 68.92 50.95 68.92 52.8 70.87 52.8 70.87 54.45 67.06 54.45"></polygon><path class="cls-2" d="M89.86,52.77A2.27,2.27,0,1,1,92.13,55a2.27,2.27,0,0,1-2.27-2.27"></path><rect class="cls-2" x="0.64" y="38.75" width="93.81" height="2.24"></rect><path class="cls-1" d="M25.79,15.06a2.59,2.59,0,0,0-1.82.8,5.37,5.37,0,0,0-1.1,1.82,9.94,9.94,0,0,0-.55,2.38,22.76,22.76,0,0,0-.14,2.5,24.82,24.82,0,0,0,.14,2.59,11.88,11.88,0,0,0,.55,2.56,5.92,5.92,0,0,0,1.1,2,2.38,2.38,0,0,0,1.82.84,2.35,2.35,0,0,0,1.79-.84,5.92,5.92,0,0,0,1.09-2,11.94,11.94,0,0,0,.55-2.56,24.81,24.81,0,0,0,.14-2.59,22.75,22.75,0,0,0-.14-2.5,10,10,0,0,0-.55-2.38,5.37,5.37,0,0,0-1.09-1.82,2.56,2.56,0,0,0-1.79-.8m0,19.68a8,8,0,0,1-4.33-1.08,8.23,8.23,0,0,1-2.75-2.82,12.35,12.35,0,0,1-1.46-3.93,24.47,24.47,0,0,1-.47-4.41,21.71,21.71,0,0,1,.45-4.38,12.6,12.6,0,0,1,1.5-3.94,8.33,8.33,0,0,1,2.77-2.83,8,8,0,0,1,4.3-1.08,7.9,7.9,0,0,1,4.27,1.08,8.33,8.33,0,0,1,2.77,2.83,12.32,12.32,0,0,1,1.48,3.94,22.43,22.43,0,0,1,.43,4.38,22.6,22.6,0,0,1-.43,4.41,12.37,12.37,0,0,1-1.46,3.93,8.23,8.23,0,0,1-2.75,2.82,8,8,0,0,1-4.3,1.08"></path><path class="cls-1" d="M74.83,34.29H69.32l-3.45-7.21h-.55v7.21h-5V10.87q.48,0,1.27-.08l1.63-.18,1.66-.18q.82-.08,1.37-.08,1.13,0,2.4.13a6.59,6.59,0,0,1,2.43.74A6.37,6.37,0,0,1,74,14.32a12.68,12.68,0,0,1,.87,5.76,9.84,9.84,0,0,1-1.27,4.51,5.2,5.2,0,0,1-2.62,2.12Zm-9.5-11a3.33,3.33,0,0,0,2,.24,2.73,2.73,0,0,0,1.4-.84A3.81,3.81,0,0,0,69.54,21,8,8,0,0,0,69.8,19a7.68,7.68,0,0,0-.14-1.48,4.37,4.37,0,0,0-.48-1.34,2.9,2.9,0,0,0-.87-1A2.28,2.28,0,0,0,67,14.83a8.39,8.39,0,0,0-1.64.16Z"></path><path class="cls-1" d="M85.84,15.06a2.59,2.59,0,0,0-1.82.8,5.37,5.37,0,0,0-1.09,1.82,9.94,9.94,0,0,0-.55,2.38,22.76,22.76,0,0,0-.14,2.5,24.82,24.82,0,0,0,.14,2.59,11.88,11.88,0,0,0,.55,2.56,5.92,5.92,0,0,0,1.09,2,2.38,2.38,0,0,0,1.82.84,2.35,2.35,0,0,0,1.79-.84,5.92,5.92,0,0,0,1.09-2,11.94,11.94,0,0,0,.55-2.56,24.81,24.81,0,0,0,.14-2.59,22.75,22.75,0,0,0-.14-2.5,10,10,0,0,0-.55-2.38,5.37,5.37,0,0,0-1.09-1.82,2.55,2.55,0,0,0-1.79-.8m0,19.68a8,8,0,0,1-4.33-1.08,8.23,8.23,0,0,1-2.75-2.82,12.38,12.38,0,0,1-1.47-3.93,24.56,24.56,0,0,1-.47-4.41,21.71,21.71,0,0,1,.45-4.38,12.6,12.6,0,0,1,1.5-3.94,8.33,8.33,0,0,1,2.77-2.83,9,9,0,0,1,8.57,0,8.33,8.33,0,0,1,2.77,2.83,12.32,12.32,0,0,1,1.48,3.94,22.43,22.43,0,0,1,0,8.79,12.37,12.37,0,0,1-1.46,3.93,8.23,8.23,0,0,1-2.75,2.82,8,8,0,0,1-4.3,1.08"></path><path class="cls-1" d="M58.73,54.45h-2l-1.24-2.6h-.2v2.6H53.49V46L54,46l.59-.06.6-.06.49,0a8.61,8.61,0,0,1,.87,0,2.37,2.37,0,0,1,.88.27,2.29,2.29,0,0,1,1,1.11,4.57,4.57,0,0,1,.31,2.08A3.55,3.55,0,0,1,58.27,51a1.88,1.88,0,0,1-.95.77Zm-3.43-4a1.2,1.2,0,0,0,.72.09,1,1,0,0,0,.51-.3,1.37,1.37,0,0,0,.3-.57,2.87,2.87,0,0,0,.09-.74,2.76,2.76,0,0,0-.05-.53,1.59,1.59,0,0,0-.17-.48,1,1,0,0,0-.31-.35.82.82,0,0,0-.48-.13,3,3,0,0,0-.59.06Z"></path><path class="cls-1" d="M81,52.93a1.47,1.47,0,0,0,.89,0,.83.83,0,0,0,.56-.43,3.38,3.38,0,0,0,.22-.77,8.84,8.84,0,0,0,.1-.91c0-.31,0-.61,0-.89s0-.53,0-.73a3.39,3.39,0,0,0-.18-1,1.3,1.3,0,0,0-.39-.57.92.92,0,0,0-.55-.2,1.72,1.72,0,0,0-.66.12ZM79.23,46l.55,0,.6-.06.68-.06a7.57,7.57,0,0,1,.8,0,3.1,3.1,0,0,1,.76.09,2.86,2.86,0,0,1,.7.27,2.56,2.56,0,0,1,.59.45,2.38,2.38,0,0,1,.44.63,3.5,3.5,0,0,1,.23.74,8.2,8.2,0,0,1,.14,1c0,.35,0,.71,0,1.07s0,.73,0,1.07a9.61,9.61,0,0,1-.12,1,3.62,3.62,0,0,1-.21.75,3.25,3.25,0,0,1-.51.89,2,2,0,0,1-.66.52,2.4,2.4,0,0,1-.83.23,6.29,6.29,0,0,1-1,0l-.65,0-.64,0h-.44l-.42,0Z"></path><path class="cls-2" d="M54,7.35a.53.53,0,0,1,.35.14,8.5,8.5,0,0,0,3.26-1.8.53.53,0,0,1,0-.21.53.53,0,0,1,0-.18,9.29,9.29,0,0,0-3.19-2.49.56.56,0,0,1-.49.3l-.08,0a11.38,11.38,0,0,0-.85,1.22.76.76,0,0,1,.25.56.77.77,0,0,1-.46.7,10.89,10.89,0,0,0,1,1.81A.53.53,0,0,1,54,7.35Z"></path><path class="cls-2" d="M52.24,2.91a5,5,0,0,0,.15,1.23.73.73,0,0,1,.15,0l.11,0a8.61,8.61,0,0,1,.87-1.26.55.55,0,0,1-.12-.33.54.54,0,0,1,0-.1,8.26,8.26,0,0,0-.88-.19.41.41,0,0,1-.28.2C52.25,2.61,52.24,2.75,52.24,2.91Z"></path><path class="cls-2" d="M58.76,4.07A3.8,3.8,0,0,1,56.11,3a7.18,7.18,0,0,1-1-.94.41.41,0,0,1-.17,0l-.11,0-.36.34a.55.55,0,0,1,0,.15h0A10,10,0,0,1,57.88,5a.52.52,0,0,1,.27-.08.53.53,0,0,1,.19,0c.2-.24.38-.46.54-.67A.38.38,0,0,1,58.76,4.07Z"></path><path class="cls-2" d="M59.27,3.68v0A4.64,4.64,0,0,0,57.35.8a3.72,3.72,0,0,0-2,.82.39.39,0,0,1,0,0,.41.41,0,0,1-.1.26,4.43,4.43,0,0,0,.93.91c1.27.94,2,1.22,2.53,1.19a.38.38,0,0,1,.38-.38Z"></path><path class="cls-2" d="M58.15,6a.52.52,0,0,1-.33-.12A10.22,10.22,0,0,1,54.54,7.7a.48.48,0,0,1-.07.49,5.25,5.25,0,0,0,.86.83,1.26,1.26,0,0,0,.31.15A4.62,4.62,0,0,0,58.7,7a2.45,2.45,0,0,0-.49-1Z"></path><path class="cls-2" d="M52.58,2a6.36,6.36,0,0,1,1,.21A.56.56,0,0,1,54,2a.55.55,0,0,1,.31.1c.1-.09.21-.17.32-.25a.41.41,0,0,1,.1-.48,1.49,1.49,0,0,1,0-1.34,4.58,4.58,0,0,0-2,.51,4.88,4.88,0,0,0-.31,1.16A.41.41,0,0,1,52.58,2Z"></path><path class="cls-2" d="M53.54,7.72a.52.52,0,0,1,.1-.18,10.05,10.05,0,0,1-1.06-1.9h0a.73.73,0,0,1-.15,0A4.67,4.67,0,0,0,52,7.49a2.64,2.64,0,0,0,.06.46,4.42,4.42,0,0,0,.57,0C52.93,7.86,53.23,7.79,53.54,7.72Z"></path><path class="cls-2" d="M54.81,8.92c-.17-.16-.35-.36-.53-.56A.51.51,0,0,1,53.52,8a8.11,8.11,0,0,1-.87.14,3.42,3.42,0,0,1-.59,0,2.8,2.8,0,0,0,.15.38,4.61,4.61,0,0,0,2.54.76,4.54,4.54,0,0,0,.48,0A1.72,1.72,0,0,1,54.81,8.92Z"></path><path class="cls-2" d="M52,8.3c0-.07-.07-.12-.1-.19l-.18,0Z"></path><path class="cls-2" d="M59.13,4.42h0a5.06,5.06,0,0,1-.56.76.52.52,0,0,1,.11.31.53.53,0,0,1-.17.39,3,3,0,0,1,.37.83,4.58,4.58,0,0,0,.51-2.07c0-.1,0-.2,0-.3A.37.37,0,0,1,59.13,4.42Z"></path><path class="cls-2" d="M51.8,1.91a.41.41,0,0,1,.31-.25,3.54,3.54,0,0,1,.35-1A4.64,4.64,0,0,0,50.9,2.07,3.37,3.37,0,0,1,51.8,1.91Z"></path><path class="cls-2" d="M51.78,7.93a2.5,2.5,0,0,1-.1-1A6.29,6.29,0,0,1,52,5.46a.74.74,0,0,1,.09-1.22A6.05,6.05,0,0,1,52,3.13c0-.25,0-.47,0-.69a.41.41,0,0,1-.23-.27l-.22,0a1.6,1.6,0,0,0-.77.1,4.58,4.58,0,0,0,.65,5.63A1.92,1.92,0,0,0,51.78,7.93Z"></path><path class="cls-2" d="M54.89,1.26l.08,0a.41.41,0,0,1,.28.11A5.38,5.38,0,0,1,56.9.55,4.58,4.58,0,0,0,54.75,0h-.06A2.39,2.39,0,0,0,54.89,1.26Z"></path></g></g>
</svg>